<svg xmlns="http://www.w3.org/2000/svg" xmlns:xlink="http://www.w3.org/1999/xlink" viewBox="0 0 400 968.4210526315788" width="400" height="968.4210526315788"><defs><linearGradient id="gg" x1="0" y1="0" x2="1" y2="0"><stop offset="0" stop-color="#dfe5e6"/><stop offset="0.5" stop-color="#aeb6b8"/><stop offset="1" stop-color="#cfd6d8"/></linearGradient><linearGradient id="gold" x1="0" y1="0" x2="1" y2="0"><stop offset="0" stop-color="#8a5a32"/><stop offset="0.45" stop-color="#d89a62"/><stop offset="0.55" stop-color="#e8b27a"/><stop offset="1" stop-color="#9a6638"/></linearGradient></defs><rect x="0" y="0" width="400" height="968.4210526315788" fill="#0c0c0d"/><rect x="0" y="0" width="12.631578947368421" height="968.4210526315788" fill="almV"/><rect x="387.36842105263156" y="0" width="12.631578947368421" height="968.4210526315788" fill="almV"/><rect x="12.631578947368421" y="0" width="374.7368421052631" height="37.89473684210526" fill="almH"/><rect x="12.631578947368421" y="37.89473684210526" width="374.7368421052631" height="922.1052631578947" fill="none" stroke="#000000" stroke-width="1.5"/><line x1="12.631578947368421" y1="0" x2="12.631578947368421" y2="37.89473684210526" stroke="#000000" stroke-width="1.8" opacity="0.95"/><line x1="14.131578947368421" y1="0" x2="14.131578947368421" y2="37.89473684210526" stroke="#30303e" stroke-width="0.7" opacity="0.5"/><line x1="387.36842105263156" y1="0" x2="387.36842105263156" y2="37.89473684210526" stroke="#000000" stroke-width="1.8" opacity="0.95"/><line x1="388.86842105263156" y1="0" x2="388.86842105263156" y2="37.89473684210526" stroke="#30303e" stroke-width="0.7" opacity="0.5"/><line x1="12.631578947368421" y1="37.89473684210526" x2="387.36842105263156" y2="37.89473684210526" stroke="#000000" stroke-width="1.8" opacity="0.95"/><line x1="12.631578947368421" y1="39.39473684210526" x2="387.36842105263156" y2="39.39473684210526" stroke="#30303e" stroke-width="0.7" opacity="0.5"/><line x1="12.631578947368421" y1="960" x2="387.36842105263156" y2="960" stroke="#000000" stroke-width="1.8" opacity="0.95"/><line x1="12.631578947368421" y1="961.5" x2="387.36842105263156" y2="961.5" stroke="#30303e" stroke-width="0.7" opacity="0.5"/><line x1="12.631578947368421" y1="960" x2="12.631578947368421" y2="968.4210526315788" stroke="#000000" stroke-width="1.8" opacity="0.95"/><line x1="14.131578947368421" y1="960" x2="14.131578947368421" y2="968.4210526315788" stroke="#30303e" stroke-width="0.7" opacity="0.5"/><line x1="387.36842105263156" y1="960" x2="387.36842105263156" y2="968.4210526315788" stroke="#000000" stroke-width="1.8" opacity="0.95"/><line x1="388.86842105263156" y1="960" x2="388.86842105263156" y2="968.4210526315788" stroke="#30303e" stroke-width="0.7" opacity="0.5"/><rect x="12.631578947368421" y="960" width="374.7368421052631" height="8.421052631578947" fill="#8a8c8f"/><rect x="12.631578947368421" y="960" width="374.7368421052631" height="8.421052631578947" fill="none" stroke="#000000" stroke-width="1.5"/><image x="382.7368421052631" y="101.05263157894737" width="9.263157894736842" height="42.10526315789473" preserveAspectRatio="none" xlink:href="/ref/hinge/%EA%B2%BD%EC%B2%A9.jpg"/><image x="382.7368421052631" y="206.3157894736842" width="9.263157894736842" height="42.10526315789473" preserveAspectRatio="none" xlink:href="/ref/hinge/%EA%B2%BD%EC%B2%A9.jpg"/><image x="382.7368421052631" y="812.6315789473683" width="9.263157894736842" height="42.10526315789473" preserveAspectRatio="none" xlink:href="/ref/hinge/%EA%B2%BD%EC%B2%A9.jpg"/><rect x="124.21052631578947" y="37.89473684210526" width="0.42105263157894735" height="922.1052631578947" fill="#0c0c0d"/><rect x="140.6315789473684" y="37.89473684210526" width="0.42105263157894735" height="922.1052631578947" fill="#0c0c0d"/><rect x="124.21052631578947" y="37.89473684210526" width="16.842105263157894" height="0.8421052631578947" fill="#0c0c0d"/><rect x="124.21052631578947" y="959.1578947368421" width="16.842105263157894" height="0.8421052631578947" fill="#0c0c0d"/><rect x="157.89473684210526" y="37.89473684210526" width="16.842105263157894" height="922.1052631578947" fill="#0c0c0d"/><rect x="158.3157894736842" y="38.73684210526316" width="16" height="920.4210526315788" fill="#8a8e92"/><rect x="160.7157894736842" y="38.73684210526316" width="4.8" height="920.4210526315788" fill="#bcc0c4" opacity="0.5"/><rect x="191.57894736842104" y="37.89473684210526" width="16.842105263157894" height="922.1052631578947" fill="#0c0c0d"/><rect x="192" y="38.73684210526316" width="16" height="920.4210526315788" fill="#8a8e92"/><rect x="194.39999999999998" y="38.73684210526316" width="4.8" height="920.4210526315788" fill="#bcc0c4" opacity="0.5"/><rect x="225.26315789473682" y="37.89473684210526" width="16.842105263157894" height="922.1052631578947" fill="#0c0c0d"/><rect x="225.68421052631578" y="38.73684210526316" width="16" height="920.4210526315788" fill="#8a8e92"/><rect x="228.0842105263158" y="38.73684210526316" width="4.8" height="920.4210526315788" fill="#bcc0c4" opacity="0.5"/><rect x="258.9473684210526" y="37.89473684210526" width="0.42105263157894735" height="922.1052631578947" fill="#0c0c0d"/><rect x="275.36842105263156" y="37.89473684210526" width="0.42105263157894735" height="922.1052631578947" fill="#0c0c0d"/><rect x="258.9473684210526" y="37.89473684210526" width="16.842105263157894" height="0.8421052631578947" fill="#0c0c0d"/><rect x="258.9473684210526" y="959.1578947368421" width="16.842105263157894" height="0.8421052631578947" fill="#0c0c0d"/><rect x="35.78947368421053" y="379.07368421052627" width="29.473684210526315" height="117.89473684210526" fill="#1a1a1a"/><rect x="35.78947368421053" y="379.07368421052627" width="29.473684210526315" height="117.89473684210526" fill="none" stroke="#444444" stroke-width="0.5"/><rect x="0" y="0" width="400" height="968.4210526315788" fill="none" stroke="#000000" stroke-width="1.5"/></svg>