<svg xmlns="http://www.w3.org/2000/svg" xmlns:xlink="http://www.w3.org/1999/xlink" viewBox="0 0 400 968.4210526315788" width="400" height="968.4210526315788"><defs><linearGradient id="gg" x1="0" y1="0" x2="1" y2="0"><stop offset="0" stop-color="#dfe5e6"/><stop offset="0.5" stop-color="#aeb6b8"/><stop offset="1" stop-color="#cfd6d8"/></linearGradient><linearGradient id="gold" x1="0" y1="0" x2="1" y2="0"><stop offset="0" stop-color="#8a5a32"/><stop offset="0.45" stop-color="#d89a62"/><stop offset="0.55" stop-color="#e8b27a"/><stop offset="1" stop-color="#9a6638"/></linearGradient></defs><rect x="0" y="0" width="400" height="968.4210526315788" fill="#0c0c0d"/><rect x="0" y="0" width="12.631578947368421" height="968.4210526315788" fill="almV"/><rect x="387.36842105263156" y="0" width="12.631578947368421" height="968.4210526315788" fill="almV"/><rect x="12.631578947368421" y="0" width="374.7368421052631" height="37.89473684210526" fill="almH"/><rect x="12.631578947368421" y="37.89473684210526" width="374.7368421052631" height="922.1052631578947" fill="none" stroke="#000000" stroke-width="1.5"/><line x1="12.631578947368421" y1="0" x2="12.631578947368421" y2="37.89473684210526" stroke="#000000" stroke-width="1.8" opacity="0.95"/><line x1="14.131578947368421" y1="0" x2="14.131578947368421" y2="37.89473684210526" stroke="#30303e" stroke-width="0.7" opacity="0.5"/><line x1="387.36842105263156" y1="0" x2="387.36842105263156" y2="37.89473684210526" stroke="#000000" stroke-width="1.8" opacity="0.95"/><line x1="388.86842105263156" y1="0" x2="388.86842105263156" y2="37.89473684210526" stroke="#30303e" stroke-width="0.7" opacity="0.5"/><line x1="12.631578947368421" y1="37.89473684210526" x2="387.36842105263156" y2="37.89473684210526" stroke="#000000" stroke-width="1.8" opacity="0.95"/><line x1="12.631578947368421" y1="39.39473684210526" x2="387.36842105263156" y2="39.39473684210526" stroke="#30303e" stroke-width="0.7" opacity="0.5"/><line x1="12.631578947368421" y1="960" x2="387.36842105263156" y2="960" stroke="#000000" stroke-width="1.8" opacity="0.95"/><line x1="12.631578947368421" y1="961.5" x2="387.36842105263156" y2="961.5" stroke="#30303e" stroke-width="0.7" opacity="0.5"/><line x1="12.631578947368421" y1="960" x2="12.631578947368421" y2="968.4210526315788" stroke="#000000" stroke-width="1.8" opacity="0.95"/><line x1="14.131578947368421" y1="960" x2="14.131578947368421" y2="968.4210526315788" stroke="#30303e" stroke-width="0.7" opacity="0.5"/><line x1="387.36842105263156" y1="960" x2="387.36842105263156" y2="968.4210526315788" stroke="#000000" stroke-width="1.8" opacity="0.95"/><line x1="388.86842105263156" y1="960" x2="388.86842105263156" y2="968.4210526315788" stroke="#30303e" stroke-width="0.7" opacity="0.5"/><rect x="12.631578947368421" y="960" width="374.7368421052631" height="8.421052631578947" fill="#8a8c8f"/><rect x="12.631578947368421" y="960" width="374.7368421052631" height="8.421052631578947" fill="none" stroke="#000000" stroke-width="1.5"/><image x="382.7368421052631" y="101.05263157894737" width="9.263157894736842" height="42.10526315789473" preserveAspectRatio="none" xlink:href="/ref/hinge/%EA%B2%BD%EC%B2%A9.jpg"/><image x="382.7368421052631" y="206.3157894736842" width="9.263157894736842" height="42.10526315789473" preserveAspectRatio="none" xlink:href="/ref/hinge/%EA%B2%BD%EC%B2%A9.jpg"/><image x="382.7368421052631" y="812.6315789473683" width="9.263157894736842" height="42.10526315789473" preserveAspectRatio="none" xlink:href="/ref/hinge/%EA%B2%BD%EC%B2%A9.jpg"/><rect x="141.05263157894737" y="37.89473684210526" width="1.894736842105263" height="922.1052631578947" fill="#0c0c0d" opacity="0.32"/><rect x="142.94736842105263" y="37.89473684210526" width="1.4736842105263157" height="922.1052631578947" fill="#0c0c0d" opacity="0.16"/><rect x="144.42105263157893" y="37.89473684210526" width="0.8421052631578947" height="922.1052631578947" fill="#0c0c0d" opacity="0.07"/><rect x="124.21052631578947" y="37.89473684210526" width="1.263157894736842" height="922.1052631578947" fill="#252530"/><rect x="139.78947368421052" y="37.89473684210526" width="1.263157894736842" height="922.1052631578947" fill="#252530"/><rect x="124.21052631578947" y="37.89473684210526" width="16.842105263157894" height="0.8421052631578947" fill="#252530"/><rect x="124.21052631578947" y="959.1578947368421" width="16.842105263157894" height="0.8421052631578947" fill="#252530"/><line x1="124.21052631578947" y1="37.89473684210526" x2="124.21052631578947" y2="960" stroke="#686870" stroke-width="1.5" opacity="0.8"/><line x1="125.47368421052632" y1="37.89473684210526" x2="125.47368421052632" y2="960" stroke="#404048" stroke-width="1.2" opacity="0.85"/><line x1="139.78947368421052" y1="37.89473684210526" x2="139.78947368421052" y2="960" stroke="#404048" stroke-width="1.2" opacity="0.85"/><rect x="174.73684210526315" y="37.89473684210526" width="1.894736842105263" height="922.1052631578947" fill="#0c0c0d" opacity="0.32"/><rect x="176.6315789473684" y="37.89473684210526" width="1.4736842105263157" height="922.1052631578947" fill="#0c0c0d" opacity="0.16"/><rect x="178.10526315789474" y="37.89473684210526" width="0.8421052631578947" height="922.1052631578947" fill="#0c0c0d" opacity="0.07"/><rect x="157.89473684210526" y="37.89473684210526" width="1.263157894736842" height="922.1052631578947" fill="#252530"/><rect x="173.4736842105263" y="37.89473684210526" width="1.263157894736842" height="922.1052631578947" fill="#252530"/><rect x="157.89473684210526" y="37.89473684210526" width="16.842105263157894" height="0.8421052631578947" fill="#252530"/><rect x="157.89473684210526" y="959.1578947368421" width="16.842105263157894" height="0.8421052631578947" fill="#252530"/><rect x="159.1578947368421" y="38.73684210526316" width="14.315789473684209" height="920.4210526315788" fill="#8a8e92"/><rect x="161.73473684210526" y="38.73684210526316" width="4.008421052631579" height="920.4210526315788" fill="#c0c4c8" opacity="0.45"/><line x1="157.89473684210526" y1="37.89473684210526" x2="157.89473684210526" y2="960" stroke="#686870" stroke-width="1.5" opacity="0.8"/><line x1="159.1578947368421" y1="37.89473684210526" x2="159.1578947368421" y2="960" stroke="#404048" stroke-width="1.2" opacity="0.85"/><line x1="173.4736842105263" y1="37.89473684210526" x2="173.4736842105263" y2="960" stroke="#404048" stroke-width="1.2" opacity="0.85"/><rect x="208.42105263157893" y="37.89473684210526" width="1.894736842105263" height="922.1052631578947" fill="#0c0c0d" opacity="0.32"/><rect x="210.3157894736842" y="37.89473684210526" width="1.4736842105263157" height="922.1052631578947" fill="#0c0c0d" opacity="0.16"/><rect x="211.78947368421052" y="37.89473684210526" width="0.8421052631578947" height="922.1052631578947" fill="#0c0c0d" opacity="0.07"/><rect x="191.57894736842104" y="37.89473684210526" width="1.263157894736842" height="922.1052631578947" fill="#252530"/><rect x="207.15789473684208" y="37.89473684210526" width="1.263157894736842" height="922.1052631578947" fill="#252530"/><rect x="191.57894736842104" y="37.89473684210526" width="16.842105263157894" height="0.8421052631578947" fill="#252530"/><rect x="191.57894736842104" y="959.1578947368421" width="16.842105263157894" height="0.8421052631578947" fill="#252530"/><rect x="192.8421052631579" y="38.73684210526316" width="14.315789473684209" height="920.4210526315788" fill="#8a8e92"/><rect x="195.41894736842104" y="38.73684210526316" width="4.008421052631579" height="920.4210526315788" fill="#c0c4c8" opacity="0.45"/><line x1="191.57894736842104" y1="37.89473684210526" x2="191.57894736842104" y2="960" stroke="#686870" stroke-width="1.5" opacity="0.8"/><line x1="192.8421052631579" y1="37.89473684210526" x2="192.8421052631579" y2="960" stroke="#404048" stroke-width="1.2" opacity="0.85"/><line x1="207.15789473684208" y1="37.89473684210526" x2="207.15789473684208" y2="960" stroke="#404048" stroke-width="1.2" opacity="0.85"/><rect x="242.1052631578947" y="37.89473684210526" width="1.894736842105263" height="922.1052631578947" fill="#0c0c0d" opacity="0.32"/><rect x="244" y="37.89473684210526" width="1.4736842105263157" height="922.1052631578947" fill="#0c0c0d" opacity="0.16"/><rect x="245.4736842105263" y="37.89473684210526" width="0.8421052631578947" height="922.1052631578947" fill="#0c0c0d" opacity="0.07"/><rect x="225.26315789473682" y="37.89473684210526" width="1.263157894736842" height="922.1052631578947" fill="#252530"/><rect x="240.8421052631579" y="37.89473684210526" width="1.263157894736842" height="922.1052631578947" fill="#252530"/><rect x="225.26315789473682" y="37.89473684210526" width="16.842105263157894" height="0.8421052631578947" fill="#252530"/><rect x="225.26315789473682" y="959.1578947368421" width="16.842105263157894" height="0.8421052631578947" fill="#252530"/><rect x="226.52631578947367" y="38.73684210526316" width="14.315789473684209" height="920.4210526315788" fill="#8a8e92"/><rect x="229.10315789473682" y="38.73684210526316" width="4.008421052631579" height="920.4210526315788" fill="#c0c4c8" opacity="0.45"/><line x1="225.26315789473682" y1="37.89473684210526" x2="225.26315789473682" y2="960" stroke="#686870" stroke-width="1.5" opacity="0.8"/><line x1="226.52631578947367" y1="37.89473684210526" x2="226.52631578947367" y2="960" stroke="#404048" stroke-width="1.2" opacity="0.85"/><line x1="240.8421052631579" y1="37.89473684210526" x2="240.8421052631579" y2="960" stroke="#404048" stroke-width="1.2" opacity="0.85"/><rect x="275.7894736842105" y="37.89473684210526" width="1.894736842105263" height="922.1052631578947" fill="#0c0c0d" opacity="0.32"/><rect x="277.6842105263158" y="37.89473684210526" width="1.4736842105263157" height="922.1052631578947" fill="#0c0c0d" opacity="0.16"/><rect x="279.1578947368421" y="37.89473684210526" width="0.8421052631578947" height="922.1052631578947" fill="#0c0c0d" opacity="0.07"/><rect x="258.9473684210526" y="37.89473684210526" width="1.263157894736842" height="922.1052631578947" fill="#252530"/><rect x="274.52631578947364" y="37.89473684210526" width="1.263157894736842" height="922.1052631578947" fill="#252530"/><rect x="258.9473684210526" y="37.89473684210526" width="16.842105263157894" height="0.8421052631578947" fill="#252530"/><rect x="258.9473684210526" y="959.1578947368421" width="16.842105263157894" height="0.8421052631578947" fill="#252530"/><line x1="258.9473684210526" y1="37.89473684210526" x2="258.9473684210526" y2="960" stroke="#686870" stroke-width="1.5" opacity="0.8"/><line x1="260.2105263157895" y1="37.89473684210526" x2="260.2105263157895" y2="960" stroke="#404048" stroke-width="1.2" opacity="0.85"/><line x1="274.52631578947364" y1="37.89473684210526" x2="274.52631578947364" y2="960" stroke="#404048" stroke-width="1.2" opacity="0.85"/><rect x="35.78947368421053" y="379.07368421052627" width="29.473684210526315" height="117.89473684210526" fill="#1a1a1a"/><rect x="35.78947368421053" y="379.07368421052627" width="29.473684210526315" height="117.89473684210526" fill="none" stroke="#444444" stroke-width="0.5"/><rect x="0" y="0" width="400" height="968.4210526315788" fill="none" stroke="#000000" stroke-width="1.5"/></svg>