<svg xmlns="http://www.w3.org/2000/svg" xmlns:xlink="http://www.w3.org/1999/xlink" viewBox="0 0 400 766.6666666666666" width="400" height="766.6666666666666"><defs><linearGradient id="gg" x1="0" y1="0" x2="1" y2="0"><stop offset="0" stop-color="#dfe5e6"/><stop offset="0.5" stop-color="#aeb6b8"/><stop offset="1" stop-color="#cfd6d8"/></linearGradient><linearGradient id="gold" x1="0" y1="0" x2="1" y2="0"><stop offset="0" stop-color="#8a5a32"/><stop offset="0.45" stop-color="#d89a62"/><stop offset="0.55" stop-color="#e8b27a"/><stop offset="1" stop-color="#9a6638"/></linearGradient></defs><rect x="0" y="0" width="400" height="766.6666666666666" fill="#0c0c0d"/><rect x="0" y="0" width="10" height="766.6666666666666" fill="almV"/><rect x="390" y="0" width="10" height="766.6666666666666" fill="almV"/><rect x="10" y="0" width="380" height="30" fill="almH"/><clipPath id="photoClip0"><rect x="41.666666666666664" y="30" width="316.66666666666663" height="730"/></clipPath><image x="41.666666666666664" y="0" width="316.66666666666663" height="766.6666666666666" preserveAspectRatio="xMidYMid slice" clip-path="url(#photoClip0)" xlink:href="/ref/color/%EA%B0%95%ED%8C%90/ZB.jpg" href="/ref/color/%EA%B0%95%ED%8C%90/ZB.jpg"/><rect x="41.666666666666664" y="30" width="316.66666666666663" height="730" fill="none" stroke="#000000" stroke-width="1.5"/><rect x="10" y="30" width="21.666666666666664" height="730" fill="url(#gg)"/><rect x="10" y="30" width="21.666666666666664" height="730" fill="none" stroke="#000000" stroke-width="1.5"/><rect x="368.3333333333333" y="30" width="21.666666666666664" height="730" fill="url(#gg)"/><rect x="368.3333333333333" y="30" width="21.666666666666664" height="730" fill="none" stroke="#000000" stroke-width="1.5"/><rect x="31.666666666666664" y="30" width="10" height="730" fill="almV"/><rect x="358.3333333333333" y="30" width="10" height="730" fill="almV"/><line x1="10" y1="0" x2="10" y2="30" stroke="#000000" stroke-width="1.8" opacity="0.95"/><line x1="11.5" y1="0" x2="11.5" y2="30" stroke="#30303e" stroke-width="0.7" opacity="0.5"/><line x1="390" y1="0" x2="390" y2="30" stroke="#000000" stroke-width="1.8" opacity="0.95"/><line x1="391.5" y1="0" x2="391.5" y2="30" stroke="#30303e" stroke-width="0.7" opacity="0.5"/><line x1="10" y1="30" x2="390" y2="30" stroke="#000000" stroke-width="1.8" opacity="0.95"/><line x1="10" y1="31.5" x2="390" y2="31.5" stroke="#30303e" stroke-width="0.7" opacity="0.5"/><line x1="31.666666666666664" y1="30" x2="31.666666666666664" y2="31.666666666666664" stroke="#000000" stroke-width="1.8" opacity="0.95"/><line x1="33.166666666666664" y1="30" x2="33.166666666666664" y2="31.666666666666664" stroke="#30303e" stroke-width="0.7" opacity="0.5"/><line x1="41.666666666666664" y1="30" x2="41.666666666666664" y2="31.666666666666664" stroke="#000000" stroke-width="1.8" opacity="0.95"/><line x1="43.166666666666664" y1="30" x2="43.166666666666664" y2="31.666666666666664" stroke="#30303e" stroke-width="0.7" opacity="0.5"/><line x1="358.3333333333333" y1="30" x2="358.3333333333333" y2="31.666666666666664" stroke="#000000" stroke-width="1.8" opacity="0.95"/><line x1="359.8333333333333" y1="30" x2="359.8333333333333" y2="31.666666666666664" stroke="#30303e" stroke-width="0.7" opacity="0.5"/><line x1="368.3333333333333" y1="30" x2="368.3333333333333" y2="31.666666666666664" stroke="#000000" stroke-width="1.8" opacity="0.95"/><line x1="369.8333333333333" y1="30" x2="369.8333333333333" y2="31.666666666666664" stroke="#30303e" stroke-width="0.7" opacity="0.5"/><line x1="10" y1="760" x2="390" y2="760" stroke="#000000" stroke-width="1.8" opacity="0.95"/><line x1="10" y1="761.5" x2="390" y2="761.5" stroke="#30303e" stroke-width="0.7" opacity="0.5"/><line x1="10" y1="760" x2="10" y2="766.6666666666666" stroke="#000000" stroke-width="1.8" opacity="0.95"/><line x1="11.5" y1="760" x2="11.5" y2="766.6666666666666" stroke="#30303e" stroke-width="0.7" opacity="0.5"/><line x1="390" y1="760" x2="390" y2="766.6666666666666" stroke="#000000" stroke-width="1.8" opacity="0.95"/><line x1="391.5" y1="760" x2="391.5" y2="766.6666666666666" stroke="#30303e" stroke-width="0.7" opacity="0.5"/><line x1="31.666666666666664" y1="758.3333333333333" x2="31.666666666666664" y2="760" stroke="#000000" stroke-width="1.8" opacity="0.95"/><line x1="33.166666666666664" y1="758.3333333333333" x2="33.166666666666664" y2="760" stroke="#30303e" stroke-width="0.7" opacity="0.5"/><line x1="41.666666666666664" y1="758.3333333333333" x2="41.666666666666664" y2="760" stroke="#000000" stroke-width="1.8" opacity="0.95"/><line x1="43.166666666666664" y1="758.3333333333333" x2="43.166666666666664" y2="760" stroke="#30303e" stroke-width="0.7" opacity="0.5"/><line x1="358.3333333333333" y1="758.3333333333333" x2="358.3333333333333" y2="760" stroke="#000000" stroke-width="1.8" opacity="0.95"/><line x1="359.8333333333333" y1="758.3333333333333" x2="359.8333333333333" y2="760" stroke="#30303e" stroke-width="0.7" opacity="0.5"/><line x1="368.3333333333333" y1="758.3333333333333" x2="368.3333333333333" y2="760" stroke="#000000" stroke-width="1.8" opacity="0.95"/><line x1="369.8333333333333" y1="758.3333333333333" x2="369.8333333333333" y2="760" stroke="#30303e" stroke-width="0.7" opacity="0.5"/><rect x="10" y="760" width="380" height="6.666666666666666" fill="#8a8c8f"/><rect x="10" y="760" width="380" height="6.666666666666666" fill="none" stroke="#000000" stroke-width="1.5"/><image x="354.66666666666663" y="80" width="7.333333333333333" height="33.33333333333333" preserveAspectRatio="none" xlink:href="/ref/hinge/%EA%B2%BD%EC%B2%A9.jpg"/><image x="354.66666666666663" y="163.33333333333331" width="7.333333333333333" height="33.33333333333333" preserveAspectRatio="none" xlink:href="/ref/hinge/%EA%B2%BD%EC%B2%A9.jpg"/><image x="354.66666666666663" y="643.3333333333333" width="7.333333333333333" height="33.33333333333333" preserveAspectRatio="none" xlink:href="/ref/hinge/%EA%B2%BD%EC%B2%A9.jpg"/><rect x="345" y="30" width="13.333333333333332" height="730" fill="#0c0c0d"/><clipPath id="photoClip1"><rect x="331.66666666666663" y="30" width="13.333333333333332" height="730"/></clipPath><image x="331.66666666666663" y="30" width="13.333333333333332" height="730" preserveAspectRatio="xMidYMid slice" clip-path="url(#photoClip1)" xlink:href="/ref/color/%EA%B0%95%ED%8C%90/MB.jpg" href="/ref/color/%EA%B0%95%ED%8C%90/MB.jpg"/><rect x="318.3333333333333" y="30" width="13.333333333333332" height="730" fill="#0c0c0d"/><clipPath id="photoClip2"><rect x="305" y="30" width="13.333333333333332" height="730"/></clipPath><image x="305" y="30" width="13.333333333333332" height="730" preserveAspectRatio="xMidYMid slice" clip-path="url(#photoClip2)" xlink:href="/ref/color/%EA%B0%95%ED%8C%90/MB.jpg" href="/ref/color/%EA%B0%95%ED%8C%90/MB.jpg"/><rect x="291.66666666666663" y="30" width="13.333333333333332" height="730" fill="#0c0c0d"/><clipPath id="photoClip3"><rect x="278.3333333333333" y="30" width="13.333333333333332" height="730"/></clipPath><image x="278.3333333333333" y="30" width="13.333333333333332" height="730" preserveAspectRatio="xMidYMid slice" clip-path="url(#photoClip3)" xlink:href="/ref/color/%EA%B0%95%ED%8C%90/MB.jpg" href="/ref/color/%EA%B0%95%ED%8C%90/MB.jpg"/><rect x="265" y="30" width="13.333333333333332" height="730" fill="#0c0c0d"/><clipPath id="photoClip4"><rect x="251.66666666666666" y="30" width="13.333333333333332" height="730"/></clipPath><image x="251.66666666666666" y="30" width="13.333333333333332" height="730" preserveAspectRatio="xMidYMid slice" clip-path="url(#photoClip4)" xlink:href="/ref/color/%EA%B0%95%ED%8C%90/MB.jpg" href="/ref/color/%EA%B0%95%ED%8C%90/MB.jpg"/><rect x="238.33333333333331" y="30" width="13.333333333333332" height="730" fill="#0c0c0d"/><clipPath id="photoClip5"><rect x="225" y="30" width="13.333333333333332" height="730"/></clipPath><image x="225" y="30" width="13.333333333333332" height="730" preserveAspectRatio="xMidYMid slice" clip-path="url(#photoClip5)" xlink:href="/ref/color/%EA%B0%95%ED%8C%90/MB.jpg" href="/ref/color/%EA%B0%95%ED%8C%90/MB.jpg"/><rect x="211.66666666666666" y="30" width="13.333333333333332" height="730" fill="#0c0c0d"/><clipPath id="photoClip6"><rect x="198.33333333333331" y="30" width="13.333333333333332" height="730"/></clipPath><image x="198.33333333333331" y="30" width="13.333333333333332" height="730" preserveAspectRatio="xMidYMid slice" clip-path="url(#photoClip6)" xlink:href="/ref/color/%EA%B0%95%ED%8C%90/MB.jpg" href="/ref/color/%EA%B0%95%ED%8C%90/MB.jpg"/><rect x="185" y="30" width="13.333333333333332" height="730" fill="#0c0c0d"/><clipPath id="photoClip7"><rect x="171.66666666666666" y="30" width="13.333333333333332" height="730"/></clipPath><image x="171.66666666666666" y="30" width="13.333333333333332" height="730" preserveAspectRatio="xMidYMid slice" clip-path="url(#photoClip7)" xlink:href="/ref/color/%EA%B0%95%ED%8C%90/MB.jpg" href="/ref/color/%EA%B0%95%ED%8C%90/MB.jpg"/><rect x="158.33333333333331" y="30" width="13.333333333333332" height="730" fill="#0c0c0d"/><clipPath id="photoClip8"><rect x="145" y="30" width="13.333333333333332" height="730"/></clipPath><image x="145" y="30" width="13.333333333333332" height="730" preserveAspectRatio="xMidYMid slice" clip-path="url(#photoClip8)" xlink:href="/ref/color/%EA%B0%95%ED%8C%90/MB.jpg" href="/ref/color/%EA%B0%95%ED%8C%90/MB.jpg"/><rect x="55" y="30" width="13.333333333333332" height="730" fill="#0c0c0d"/><clipPath id="photoClip9"><rect x="41.666666666666664" y="30" width="13.333333333333332" height="730"/></clipPath><image x="41.666666666666664" y="30" width="13.333333333333332" height="730" preserveAspectRatio="xMidYMid slice" clip-path="url(#photoClip9)" xlink:href="/ref/color/%EA%B0%95%ED%8C%90/MB.jpg" href="/ref/color/%EA%B0%95%ED%8C%90/MB.jpg"/><rect x="81.66666666666666" y="30" width="13.333333333333332" height="730" fill="#0c0c0d"/><clipPath id="photoClip10"><rect x="68.33333333333333" y="30" width="13.333333333333332" height="730"/></clipPath><image x="68.33333333333333" y="30" width="13.333333333333332" height="730" preserveAspectRatio="xMidYMid slice" clip-path="url(#photoClip10)" xlink:href="/ref/color/%EA%B0%95%ED%8C%90/MB.jpg" href="/ref/color/%EA%B0%95%ED%8C%90/MB.jpg"/><clipPath id="photoClip11"><rect x="95" y="30" width="13.333333333333332" height="730"/></clipPath><image x="95" y="30" width="13.333333333333332" height="730" preserveAspectRatio="xMidYMid slice" clip-path="url(#photoClip11)" xlink:href="/ref/color/%EA%B0%95%ED%8C%90/MB.jpg" href="/ref/color/%EA%B0%95%ED%8C%90/MB.jpg"/><rect x="60" y="300.09999999999997" width="23.333333333333332" height="93.33333333333333" fill="#1a1a1a"/><rect x="60" y="300.09999999999997" width="23.333333333333332" height="93.33333333333333" fill="none" stroke="#444444" stroke-width="0.5"/><rect x="0" y="0" width="400" height="766.6666666666666" fill="none" stroke="#000000" stroke-width="1.5"/></svg>
