<svg xmlns="http://www.w3.org/2000/svg" xmlns:xlink="http://www.w3.org/1999/xlink" viewBox="0 0 400 968.4210526315788" width="400" height="968.4210526315788"><defs><linearGradient id="gg" x1="0" y1="0" x2="1" y2="0"><stop offset="0" stop-color="#dfe5e6"/><stop offset="0.5" stop-color="#aeb6b8"/><stop offset="1" stop-color="#cfd6d8"/></linearGradient><linearGradient id="gold" x1="0" y1="0" x2="1" y2="0"><stop offset="0" stop-color="#8a5a32"/><stop offset="0.45" stop-color="#d89a62"/><stop offset="0.55" stop-color="#e8b27a"/><stop offset="1" stop-color="#9a6638"/></linearGradient></defs><rect x="0" y="0" width="400" height="968.4210526315788" fill="#0c0c0d"/><rect x="0" y="0" width="12.631578947368421" height="968.4210526315788" fill="almV"/><rect x="387.36842105263156" y="0" width="12.631578947368421" height="968.4210526315788" fill="almV"/><rect x="12.631578947368421" y="0" width="374.7368421052631" height="37.89473684210526" fill="almH"/><rect x="12.631578947368421" y="37.89473684210526" width="374.7368421052631" height="922.1052631578947" fill="none" stroke="#000000" stroke-width="1.5"/><line x1="12.631578947368421" y1="0" x2="12.631578947368421" y2="37.89473684210526" stroke="#000000" stroke-width="1.8" opacity="0.95"/><line x1="14.131578947368421" y1="0" x2="14.131578947368421" y2="37.89473684210526" stroke="#30303e" stroke-width="0.7" opacity="0.5"/><line x1="387.36842105263156" y1="0" x2="387.36842105263156" y2="37.89473684210526" stroke="#000000" stroke-width="1.8" opacity="0.95"/><line x1="388.86842105263156" y1="0" x2="388.86842105263156" y2="37.89473684210526" stroke="#30303e" stroke-width="0.7" opacity="0.5"/><line x1="12.631578947368421" y1="37.89473684210526" x2="387.36842105263156" y2="37.89473684210526" stroke="#000000" stroke-width="1.8" opacity="0.95"/><line x1="12.631578947368421" y1="39.39473684210526" x2="387.36842105263156" y2="39.39473684210526" stroke="#30303e" stroke-width="0.7" opacity="0.5"/><line x1="12.631578947368421" y1="960" x2="387.36842105263156" y2="960" stroke="#000000" stroke-width="1.8" opacity="0.95"/><line x1="12.631578947368421" y1="961.5" x2="387.36842105263156" y2="961.5" stroke="#30303e" stroke-width="0.7" opacity="0.5"/><line x1="12.631578947368421" y1="960" x2="12.631578947368421" y2="968.4210526315788" stroke="#000000" stroke-width="1.8" opacity="0.95"/><line x1="14.131578947368421" y1="960" x2="14.131578947368421" y2="968.4210526315788" stroke="#30303e" stroke-width="0.7" opacity="0.5"/><line x1="387.36842105263156" y1="960" x2="387.36842105263156" y2="968.4210526315788" stroke="#000000" stroke-width="1.8" opacity="0.95"/><line x1="388.86842105263156" y1="960" x2="388.86842105263156" y2="968.4210526315788" stroke="#30303e" stroke-width="0.7" opacity="0.5"/><rect x="12.631578947368421" y="960" width="374.7368421052631" height="8.421052631578947" fill="#8a8c8f"/><rect x="12.631578947368421" y="960" width="374.7368421052631" height="8.421052631578947" fill="none" stroke="#000000" stroke-width="1.5"/><image x="382.7368421052631" y="101.05263157894737" width="9.263157894736842" height="42.10526315789473" preserveAspectRatio="none" xlink:href="/ref/hinge/%EA%B2%BD%EC%B2%A9.jpg"/><image x="382.7368421052631" y="206.3157894736842" width="9.263157894736842" height="42.10526315789473" preserveAspectRatio="none" xlink:href="/ref/hinge/%EA%B2%BD%EC%B2%A9.jpg"/><image x="382.7368421052631" y="812.6315789473683" width="9.263157894736842" height="42.10526315789473" preserveAspectRatio="none" xlink:href="/ref/hinge/%EA%B2%BD%EC%B2%A9.jpg"/><rect x="12.631578947368421" y="37.89473684210526" width="82.4421052631579" height="922.1052631578947" fill="#0c0c0d"/><line x1="14.745479082321186" y1="37.89473684210526" x2="14.745479082321186" y2="960" stroke="#3a3a3e" stroke-width="0.7" opacity="0.65"/><line x1="15.745479082321186" y1="37.89473684210526" x2="15.745479082321186" y2="960" stroke="#666668" stroke-width="0.4" opacity="0.3"/><line x1="16.859379217273954" y1="37.89473684210526" x2="16.859379217273954" y2="960" stroke="#3a3a3e" stroke-width="0.7" opacity="0.65"/><line x1="17.859379217273954" y1="37.89473684210526" x2="17.859379217273954" y2="960" stroke="#666668" stroke-width="0.4" opacity="0.3"/><line x1="18.97327935222672" y1="37.89473684210526" x2="18.97327935222672" y2="960" stroke="#3a3a3e" stroke-width="0.7" opacity="0.65"/><line x1="19.97327935222672" y1="37.89473684210526" x2="19.97327935222672" y2="960" stroke="#666668" stroke-width="0.4" opacity="0.3"/><line x1="21.087179487179487" y1="37.89473684210526" x2="21.087179487179487" y2="960" stroke="#3a3a3e" stroke-width="0.7" opacity="0.65"/><line x1="22.087179487179487" y1="37.89473684210526" x2="22.087179487179487" y2="960" stroke="#666668" stroke-width="0.4" opacity="0.3"/><line x1="23.20107962213225" y1="37.89473684210526" x2="23.20107962213225" y2="960" stroke="#3a3a3e" stroke-width="0.7" opacity="0.65"/><line x1="24.20107962213225" y1="37.89473684210526" x2="24.20107962213225" y2="960" stroke="#666668" stroke-width="0.4" opacity="0.3"/><line x1="25.31497975708502" y1="37.89473684210526" x2="25.31497975708502" y2="960" stroke="#3a3a3e" stroke-width="0.7" opacity="0.65"/><line x1="26.31497975708502" y1="37.89473684210526" x2="26.31497975708502" y2="960" stroke="#666668" stroke-width="0.4" opacity="0.3"/><line x1="27.42887989203779" y1="37.89473684210526" x2="27.42887989203779" y2="960" stroke="#3a3a3e" stroke-width="0.7" opacity="0.65"/><line x1="28.42887989203779" y1="37.89473684210526" x2="28.42887989203779" y2="960" stroke="#666668" stroke-width="0.4" opacity="0.3"/><line x1="29.542780026990552" y1="37.89473684210526" x2="29.542780026990552" y2="960" stroke="#3a3a3e" stroke-width="0.7" opacity="0.65"/><line x1="30.542780026990552" y1="37.89473684210526" x2="30.542780026990552" y2="960" stroke="#666668" stroke-width="0.4" opacity="0.3"/><line x1="31.656680161943317" y1="37.89473684210526" x2="31.656680161943317" y2="960" stroke="#3a3a3e" stroke-width="0.7" opacity="0.65"/><line x1="32.65668016194332" y1="37.89473684210526" x2="32.65668016194332" y2="960" stroke="#666668" stroke-width="0.4" opacity="0.3"/><line x1="33.770580296896085" y1="37.89473684210526" x2="33.770580296896085" y2="960" stroke="#3a3a3e" stroke-width="0.7" opacity="0.65"/><line x1="34.770580296896085" y1="37.89473684210526" x2="34.770580296896085" y2="960" stroke="#666668" stroke-width="0.4" opacity="0.3"/><line x1="35.88448043184886" y1="37.89473684210526" x2="35.88448043184886" y2="960" stroke="#3a3a3e" stroke-width="0.7" opacity="0.65"/><line x1="36.88448043184886" y1="37.89473684210526" x2="36.88448043184886" y2="960" stroke="#666668" stroke-width="0.4" opacity="0.3"/><line x1="37.998380566801615" y1="37.89473684210526" x2="37.998380566801615" y2="960" stroke="#3a3a3e" stroke-width="0.7" opacity="0.65"/><line x1="38.998380566801615" y1="37.89473684210526" x2="38.998380566801615" y2="960" stroke="#666668" stroke-width="0.4" opacity="0.3"/><line x1="40.112280701754386" y1="37.89473684210526" x2="40.112280701754386" y2="960" stroke="#3a3a3e" stroke-width="0.7" opacity="0.65"/><line x1="41.112280701754386" y1="37.89473684210526" x2="41.112280701754386" y2="960" stroke="#666668" stroke-width="0.4" opacity="0.3"/><line x1="42.22618083670716" y1="37.89473684210526" x2="42.22618083670716" y2="960" stroke="#3a3a3e" stroke-width="0.7" opacity="0.65"/><line x1="43.22618083670716" y1="37.89473684210526" x2="43.22618083670716" y2="960" stroke="#666668" stroke-width="0.4" opacity="0.3"/><line x1="44.340080971659916" y1="37.89473684210526" x2="44.340080971659916" y2="960" stroke="#3a3a3e" stroke-width="0.7" opacity="0.65"/><line x1="45.340080971659916" y1="37.89473684210526" x2="45.340080971659916" y2="960" stroke="#666668" stroke-width="0.4" opacity="0.3"/><line x1="46.45398110661268" y1="37.89473684210526" x2="46.45398110661268" y2="960" stroke="#3a3a3e" stroke-width="0.7" opacity="0.65"/><line x1="47.45398110661268" y1="37.89473684210526" x2="47.45398110661268" y2="960" stroke="#666668" stroke-width="0.4" opacity="0.3"/><line x1="48.56788124156545" y1="37.89473684210526" x2="48.56788124156545" y2="960" stroke="#3a3a3e" stroke-width="0.7" opacity="0.65"/><line x1="49.56788124156545" y1="37.89473684210526" x2="49.56788124156545" y2="960" stroke="#666668" stroke-width="0.4" opacity="0.3"/><line x1="50.68178137651822" y1="37.89473684210526" x2="50.68178137651822" y2="960" stroke="#3a3a3e" stroke-width="0.7" opacity="0.65"/><line x1="51.68178137651822" y1="37.89473684210526" x2="51.68178137651822" y2="960" stroke="#666668" stroke-width="0.4" opacity="0.3"/><line x1="52.79568151147099" y1="37.89473684210526" x2="52.79568151147099" y2="960" stroke="#3a3a3e" stroke-width="0.7" opacity="0.65"/><line x1="53.79568151147099" y1="37.89473684210526" x2="53.79568151147099" y2="960" stroke="#666668" stroke-width="0.4" opacity="0.3"/><line x1="54.909581646423746" y1="37.89473684210526" x2="54.909581646423746" y2="960" stroke="#3a3a3e" stroke-width="0.7" opacity="0.65"/><line x1="55.909581646423746" y1="37.89473684210526" x2="55.909581646423746" y2="960" stroke="#666668" stroke-width="0.4" opacity="0.3"/><line x1="57.02348178137651" y1="37.89473684210526" x2="57.02348178137651" y2="960" stroke="#3a3a3e" stroke-width="0.7" opacity="0.65"/><line x1="58.02348178137651" y1="37.89473684210526" x2="58.02348178137651" y2="960" stroke="#666668" stroke-width="0.4" opacity="0.3"/><line x1="59.13738191632929" y1="37.89473684210526" x2="59.13738191632929" y2="960" stroke="#3a3a3e" stroke-width="0.7" opacity="0.65"/><line x1="60.13738191632929" y1="37.89473684210526" x2="60.13738191632929" y2="960" stroke="#666668" stroke-width="0.4" opacity="0.3"/><line x1="61.251282051282054" y1="37.89473684210526" x2="61.251282051282054" y2="960" stroke="#3a3a3e" stroke-width="0.7" opacity="0.65"/><line x1="62.251282051282054" y1="37.89473684210526" x2="62.251282051282054" y2="960" stroke="#666668" stroke-width="0.4" opacity="0.3"/><line x1="63.36518218623481" y1="37.89473684210526" x2="63.36518218623481" y2="960" stroke="#3a3a3e" stroke-width="0.7" opacity="0.65"/><line x1="64.36518218623482" y1="37.89473684210526" x2="64.36518218623482" y2="960" stroke="#666668" stroke-width="0.4" opacity="0.3"/><line x1="65.47908232118758" y1="37.89473684210526" x2="65.47908232118758" y2="960" stroke="#3a3a3e" stroke-width="0.7" opacity="0.65"/><line x1="66.47908232118758" y1="37.89473684210526" x2="66.47908232118758" y2="960" stroke="#666668" stroke-width="0.4" opacity="0.3"/><line x1="67.59298245614035" y1="37.89473684210526" x2="67.59298245614035" y2="960" stroke="#3a3a3e" stroke-width="0.7" opacity="0.65"/><line x1="68.59298245614035" y1="37.89473684210526" x2="68.59298245614035" y2="960" stroke="#666668" stroke-width="0.4" opacity="0.3"/><line x1="69.70688259109312" y1="37.89473684210526" x2="69.70688259109312" y2="960" stroke="#3a3a3e" stroke-width="0.7" opacity="0.65"/><line x1="70.70688259109312" y1="37.89473684210526" x2="70.70688259109312" y2="960" stroke="#666668" stroke-width="0.4" opacity="0.3"/><line x1="71.82078272604589" y1="37.89473684210526" x2="71.82078272604589" y2="960" stroke="#3a3a3e" stroke-width="0.7" opacity="0.65"/><line x1="72.82078272604589" y1="37.89473684210526" x2="72.82078272604589" y2="960" stroke="#666668" stroke-width="0.4" opacity="0.3"/><line x1="73.93468286099865" y1="37.89473684210526" x2="73.93468286099865" y2="960" stroke="#3a3a3e" stroke-width="0.7" opacity="0.65"/><line x1="74.93468286099865" y1="37.89473684210526" x2="74.93468286099865" y2="960" stroke="#666668" stroke-width="0.4" opacity="0.3"/><line x1="76.0485829959514" y1="37.89473684210526" x2="76.0485829959514" y2="960" stroke="#3a3a3e" stroke-width="0.7" opacity="0.65"/><line x1="77.0485829959514" y1="37.89473684210526" x2="77.0485829959514" y2="960" stroke="#666668" stroke-width="0.4" opacity="0.3"/><line x1="78.16248313090418" y1="37.89473684210526" x2="78.16248313090418" y2="960" stroke="#3a3a3e" stroke-width="0.7" opacity="0.65"/><line x1="79.16248313090418" y1="37.89473684210526" x2="79.16248313090418" y2="960" stroke="#666668" stroke-width="0.4" opacity="0.3"/><line x1="80.27638326585695" y1="37.89473684210526" x2="80.27638326585695" y2="960" stroke="#3a3a3e" stroke-width="0.7" opacity="0.65"/><line x1="81.27638326585695" y1="37.89473684210526" x2="81.27638326585695" y2="960" stroke="#666668" stroke-width="0.4" opacity="0.3"/><line x1="82.39028340080972" y1="37.89473684210526" x2="82.39028340080972" y2="960" stroke="#3a3a3e" stroke-width="0.7" opacity="0.65"/><line x1="83.39028340080972" y1="37.89473684210526" x2="83.39028340080972" y2="960" stroke="#666668" stroke-width="0.4" opacity="0.3"/><line x1="84.5041835357625" y1="37.89473684210526" x2="84.5041835357625" y2="960" stroke="#3a3a3e" stroke-width="0.7" opacity="0.65"/><line x1="85.5041835357625" y1="37.89473684210526" x2="85.5041835357625" y2="960" stroke="#666668" stroke-width="0.4" opacity="0.3"/><line x1="86.61808367071525" y1="37.89473684210526" x2="86.61808367071525" y2="960" stroke="#3a3a3e" stroke-width="0.7" opacity="0.65"/><line x1="87.61808367071525" y1="37.89473684210526" x2="87.61808367071525" y2="960" stroke="#666668" stroke-width="0.4" opacity="0.3"/><line x1="88.73198380566801" y1="37.89473684210526" x2="88.73198380566801" y2="960" stroke="#3a3a3e" stroke-width="0.7" opacity="0.65"/><line x1="89.73198380566801" y1="37.89473684210526" x2="89.73198380566801" y2="960" stroke="#666668" stroke-width="0.4" opacity="0.3"/><line x1="90.84588394062078" y1="37.89473684210526" x2="90.84588394062078" y2="960" stroke="#3a3a3e" stroke-width="0.7" opacity="0.65"/><line x1="91.84588394062078" y1="37.89473684210526" x2="91.84588394062078" y2="960" stroke="#666668" stroke-width="0.4" opacity="0.3"/><line x1="92.95978407557355" y1="37.89473684210526" x2="92.95978407557355" y2="960" stroke="#3a3a3e" stroke-width="0.7" opacity="0.65"/><line x1="93.95978407557355" y1="37.89473684210526" x2="93.95978407557355" y2="960" stroke="#666668" stroke-width="0.4" opacity="0.3"/><rect x="94.23157894736842" y="37.89473684210526" width="1.6842105263157894" height="922.1052631578947" fill="#9ea2a6"/><rect x="94.56842105263158" y="37.89473684210526" width="0.5894736842105263" height="922.1052631578947" fill="#c4c8cc" opacity="0.55"/><line x1="95.07368421052631" y1="37.89473684210526" x2="95.07368421052631" y2="960" stroke="#000000" stroke-width="1.8" opacity="0.95"/><line x1="96.57368421052631" y1="37.89473684210526" x2="96.57368421052631" y2="960" stroke="#30303e" stroke-width="0.7" opacity="0.5"/><rect x="35.78947368421053" y="379.07368421052627" width="29.473684210526315" height="117.89473684210526" fill="#1a1a1a"/><rect x="35.78947368421053" y="379.07368421052627" width="29.473684210526315" height="117.89473684210526" fill="none" stroke="#444444" stroke-width="0.5"/><rect x="0" y="0" width="400" height="968.4210526315788" fill="none" stroke="#000000" stroke-width="1.5"/></svg>