<svg xmlns="http://www.w3.org/2000/svg" xmlns:xlink="http://www.w3.org/1999/xlink" viewBox="0 0 400 968.4210526315788" width="400" height="968.4210526315788"><defs><linearGradient id="gg" x1="0" y1="0" x2="1" y2="0"><stop offset="0" stop-color="#dfe5e6"/><stop offset="0.5" stop-color="#aeb6b8"/><stop offset="1" stop-color="#cfd6d8"/></linearGradient><linearGradient id="gold" x1="0" y1="0" x2="1" y2="0"><stop offset="0" stop-color="#8a5a32"/><stop offset="0.45" stop-color="#d89a62"/><stop offset="0.55" stop-color="#e8b27a"/><stop offset="1" stop-color="#9a6638"/></linearGradient></defs><rect x="0" y="0" width="400" height="968.4210526315788" fill="#0c0c0d"/><rect x="0" y="0" width="12.631578947368421" height="968.4210526315788" fill="almV"/><rect x="387.36842105263156" y="0" width="12.631578947368421" height="968.4210526315788" fill="almV"/><rect x="12.631578947368421" y="0" width="374.7368421052631" height="37.89473684210526" fill="almH"/><rect x="12.631578947368421" y="37.89473684210526" width="374.7368421052631" height="922.1052631578947" fill="none" stroke="#000000" stroke-width="1.5"/><line x1="12.631578947368421" y1="0" x2="12.631578947368421" y2="37.89473684210526" stroke="#000000" stroke-width="1.8" opacity="0.95"/><line x1="14.131578947368421" y1="0" x2="14.131578947368421" y2="37.89473684210526" stroke="#30303e" stroke-width="0.7" opacity="0.5"/><line x1="387.36842105263156" y1="0" x2="387.36842105263156" y2="37.89473684210526" stroke="#000000" stroke-width="1.8" opacity="0.95"/><line x1="388.86842105263156" y1="0" x2="388.86842105263156" y2="37.89473684210526" stroke="#30303e" stroke-width="0.7" opacity="0.5"/><line x1="12.631578947368421" y1="37.89473684210526" x2="387.36842105263156" y2="37.89473684210526" stroke="#000000" stroke-width="1.8" opacity="0.95"/><line x1="12.631578947368421" y1="39.39473684210526" x2="387.36842105263156" y2="39.39473684210526" stroke="#30303e" stroke-width="0.7" opacity="0.5"/><line x1="12.631578947368421" y1="960" x2="387.36842105263156" y2="960" stroke="#000000" stroke-width="1.8" opacity="0.95"/><line x1="12.631578947368421" y1="961.5" x2="387.36842105263156" y2="961.5" stroke="#30303e" stroke-width="0.7" opacity="0.5"/><line x1="12.631578947368421" y1="960" x2="12.631578947368421" y2="968.4210526315788" stroke="#000000" stroke-width="1.8" opacity="0.95"/><line x1="14.131578947368421" y1="960" x2="14.131578947368421" y2="968.4210526315788" stroke="#30303e" stroke-width="0.7" opacity="0.5"/><line x1="387.36842105263156" y1="960" x2="387.36842105263156" y2="968.4210526315788" stroke="#000000" stroke-width="1.8" opacity="0.95"/><line x1="388.86842105263156" y1="960" x2="388.86842105263156" y2="968.4210526315788" stroke="#30303e" stroke-width="0.7" opacity="0.5"/><rect x="12.631578947368421" y="960" width="374.7368421052631" height="8.421052631578947" fill="#8a8c8f"/><rect x="12.631578947368421" y="960" width="374.7368421052631" height="8.421052631578947" fill="none" stroke="#000000" stroke-width="1.5"/><image x="382.7368421052631" y="101.05263157894737" width="9.263157894736842" height="42.10526315789473" preserveAspectRatio="none" xlink:href="/ref/hinge/%EA%B2%BD%EC%B2%A9.jpg"/><image x="382.7368421052631" y="206.3157894736842" width="9.263157894736842" height="42.10526315789473" preserveAspectRatio="none" xlink:href="/ref/hinge/%EA%B2%BD%EC%B2%A9.jpg"/><image x="382.7368421052631" y="812.6315789473683" width="9.263157894736842" height="42.10526315789473" preserveAspectRatio="none" xlink:href="/ref/hinge/%EA%B2%BD%EC%B2%A9.jpg"/><line x1="117.55789473684212" y1="37.89473684210526" x2="117.55789473684212" y2="960" stroke="#000000" stroke-width="2.5" opacity="0.78"/><line x1="118.55789473684212" y1="37.89473684210526" x2="118.55789473684212" y2="960" stroke="#ffffff" stroke-width="0.8" opacity="0.08"/><line x1="185.0105263157895" y1="37.89473684210526" x2="185.0105263157895" y2="960" stroke="#000000" stroke-width="2.5" opacity="0.78"/><line x1="186.0105263157895" y1="37.89473684210526" x2="186.0105263157895" y2="960" stroke="#ffffff" stroke-width="0.8" opacity="0.08"/><line x1="226.23157894736838" y1="37.89473684210526" x2="226.23157894736838" y2="960" stroke="#000000" stroke-width="2.5" opacity="0.78"/><line x1="227.23157894736838" y1="37.89473684210526" x2="227.23157894736838" y2="960" stroke="#ffffff" stroke-width="0.8" opacity="0.08"/><line x1="267.4526315789474" y1="37.89473684210526" x2="267.4526315789474" y2="960" stroke="#000000" stroke-width="2.5" opacity="0.78"/><line x1="268.4526315789474" y1="37.89473684210526" x2="268.4526315789474" y2="960" stroke="#ffffff" stroke-width="0.8" opacity="0.08"/><rect x="185.0105263157895" y="127.93684210526317" width="82.4421052631579" height="156.64" fill="#0c0c0d"/><rect x="194.90357894736843" y="148.54736842105262" width="62.65599999999999" height="115.41894736842104" fill="#1e1e26"/><line x1="194.90357894736843" y1="206.25684210526316" x2="257.55957894736844" y2="206.25684210526316" stroke="#000" stroke-width="2" opacity="0.85"/><line x1="226.23157894736843" y1="148.54736842105262" x2="226.23157894736843" y2="263.9663157894737" stroke="#000" stroke-width="2" opacity="0.85"/><line x1="214.89578947368423" y1="132.57421052631577" x2="214.89578947368423" y2="143.91" stroke="#000" stroke-width="1.8" opacity="0.7"/><line x1="237.56736842105266" y1="132.57421052631577" x2="237.56736842105266" y2="143.91" stroke="#000" stroke-width="1.8" opacity="0.7"/><line x1="214.89578947368423" y1="134.2745789473684" x2="237.56736842105266" y2="134.2745789473684" stroke="#000" stroke-width="1" opacity="0.55"/><line x1="214.89578947368423" y1="142.20963157894735" x2="237.56736842105266" y2="142.20963157894735" stroke="#000" stroke-width="1" opacity="0.55"/><line x1="214.89578947368423" y1="268.60368421052635" x2="214.89578947368423" y2="279.93947368421055" stroke="#000" stroke-width="1.8" opacity="0.7"/><line x1="237.56736842105266" y1="268.60368421052635" x2="237.56736842105266" y2="279.93947368421055" stroke="#000" stroke-width="1.8" opacity="0.7"/><line x1="214.89578947368423" y1="270.304052631579" x2="237.56736842105266" y2="270.304052631579" stroke="#000" stroke-width="1" opacity="0.55"/><line x1="214.89578947368423" y1="278.2391052631579" x2="237.56736842105266" y2="278.2391052631579" stroke="#000" stroke-width="1" opacity="0.55"/><rect x="185.0105263157895" y="127.93684210526317" width="82.4421052631579" height="156.64" fill="none" stroke="#000" stroke-width="1.2"/><rect x="35.78947368421053" y="379.07368421052627" width="29.473684210526315" height="117.89473684210526" fill="#1a1a1a"/><rect x="35.78947368421053" y="379.07368421052627" width="29.473684210526315" height="117.89473684210526" fill="none" stroke="#444444" stroke-width="0.5"/><rect x="0" y="0" width="400" height="968.4210526315788" fill="none" stroke="#000000" stroke-width="1.5"/></svg>