<svg xmlns="http://www.w3.org/2000/svg" xmlns:xlink="http://www.w3.org/1999/xlink" viewBox="0 0 400 968.4210526315788" width="400" height="968.4210526315788"><defs><linearGradient id="gg" x1="0" y1="0" x2="1" y2="0"><stop offset="0" stop-color="#dfe5e6"/><stop offset="0.5" stop-color="#aeb6b8"/><stop offset="1" stop-color="#cfd6d8"/></linearGradient><linearGradient id="gold" x1="0" y1="0" x2="1" y2="0"><stop offset="0" stop-color="#8a5a32"/><stop offset="0.45" stop-color="#d89a62"/><stop offset="0.55" stop-color="#e8b27a"/><stop offset="1" stop-color="#9a6638"/></linearGradient></defs><rect x="0" y="0" width="400" height="968.4210526315788" fill="#0c0c0d"/><rect x="0" y="0" width="12.631578947368421" height="968.4210526315788" fill="almV"/><rect x="387.36842105263156" y="0" width="12.631578947368421" height="968.4210526315788" fill="almV"/><rect x="12.631578947368421" y="0" width="374.7368421052631" height="37.89473684210526" fill="almH"/><rect x="12.631578947368421" y="37.89473684210526" width="374.7368421052631" height="922.1052631578947" fill="none" stroke="#000000" stroke-width="1.5"/><line x1="12.631578947368421" y1="0" x2="12.631578947368421" y2="37.89473684210526" stroke="#000000" stroke-width="1.8" opacity="0.95"/><line x1="14.131578947368421" y1="0" x2="14.131578947368421" y2="37.89473684210526" stroke="#30303e" stroke-width="0.7" opacity="0.5"/><line x1="387.36842105263156" y1="0" x2="387.36842105263156" y2="37.89473684210526" stroke="#000000" stroke-width="1.8" opacity="0.95"/><line x1="388.86842105263156" y1="0" x2="388.86842105263156" y2="37.89473684210526" stroke="#30303e" stroke-width="0.7" opacity="0.5"/><line x1="12.631578947368421" y1="37.89473684210526" x2="387.36842105263156" y2="37.89473684210526" stroke="#000000" stroke-width="1.8" opacity="0.95"/><line x1="12.631578947368421" y1="39.39473684210526" x2="387.36842105263156" y2="39.39473684210526" stroke="#30303e" stroke-width="0.7" opacity="0.5"/><line x1="12.631578947368421" y1="960" x2="387.36842105263156" y2="960" stroke="#000000" stroke-width="1.8" opacity="0.95"/><line x1="12.631578947368421" y1="961.5" x2="387.36842105263156" y2="961.5" stroke="#30303e" stroke-width="0.7" opacity="0.5"/><line x1="12.631578947368421" y1="960" x2="12.631578947368421" y2="968.4210526315788" stroke="#000000" stroke-width="1.8" opacity="0.95"/><line x1="14.131578947368421" y1="960" x2="14.131578947368421" y2="968.4210526315788" stroke="#30303e" stroke-width="0.7" opacity="0.5"/><line x1="387.36842105263156" y1="960" x2="387.36842105263156" y2="968.4210526315788" stroke="#000000" stroke-width="1.8" opacity="0.95"/><line x1="388.86842105263156" y1="960" x2="388.86842105263156" y2="968.4210526315788" stroke="#30303e" stroke-width="0.7" opacity="0.5"/><rect x="12.631578947368421" y="960" width="374.7368421052631" height="8.421052631578947" fill="#8a8c8f"/><rect x="12.631578947368421" y="960" width="374.7368421052631" height="8.421052631578947" fill="none" stroke="#000000" stroke-width="1.5"/><image x="382.7368421052631" y="101.05263157894737" width="9.263157894736842" height="42.10526315789473" preserveAspectRatio="none" xlink:href="/ref/hinge/%EA%B2%BD%EC%B2%A9.jpg"/><image x="382.7368421052631" y="206.3157894736842" width="9.263157894736842" height="42.10526315789473" preserveAspectRatio="none" xlink:href="/ref/hinge/%EA%B2%BD%EC%B2%A9.jpg"/><image x="382.7368421052631" y="812.6315789473683" width="9.263157894736842" height="42.10526315789473" preserveAspectRatio="none" xlink:href="/ref/hinge/%EA%B2%BD%EC%B2%A9.jpg"/><line x1="12.631578947368421" y1="89.12280701754386" x2="387.36842105263156" y2="89.12280701754386" stroke="#000000" stroke-width="1.8" opacity="0.95"/><line x1="12.631578947368421" y1="90.62280701754386" x2="387.36842105263156" y2="90.62280701754386" stroke="#30303e" stroke-width="0.7" opacity="0.5"/><line x1="12.631578947368421" y1="140.35087719298247" x2="387.36842105263156" y2="140.35087719298247" stroke="#000000" stroke-width="1.8" opacity="0.95"/><line x1="12.631578947368421" y1="141.85087719298247" x2="387.36842105263156" y2="141.85087719298247" stroke="#30303e" stroke-width="0.7" opacity="0.5"/><line x1="12.631578947368421" y1="191.57894736842104" x2="387.36842105263156" y2="191.57894736842104" stroke="#000000" stroke-width="1.8" opacity="0.95"/><line x1="12.631578947368421" y1="193.07894736842104" x2="387.36842105263156" y2="193.07894736842104" stroke="#30303e" stroke-width="0.7" opacity="0.5"/><line x1="12.631578947368421" y1="242.80701754385967" x2="387.36842105263156" y2="242.80701754385967" stroke="#000000" stroke-width="1.8" opacity="0.95"/><line x1="12.631578947368421" y1="244.30701754385967" x2="387.36842105263156" y2="244.30701754385967" stroke="#30303e" stroke-width="0.7" opacity="0.5"/><line x1="12.631578947368421" y1="294.03508771929825" x2="387.36842105263156" y2="294.03508771929825" stroke="#000000" stroke-width="1.8" opacity="0.95"/><line x1="12.631578947368421" y1="295.53508771929825" x2="387.36842105263156" y2="295.53508771929825" stroke="#30303e" stroke-width="0.7" opacity="0.5"/><line x1="12.631578947368421" y1="345.2631578947368" x2="387.36842105263156" y2="345.2631578947368" stroke="#000000" stroke-width="1.8" opacity="0.95"/><line x1="12.631578947368421" y1="346.7631578947368" x2="387.36842105263156" y2="346.7631578947368" stroke="#30303e" stroke-width="0.7" opacity="0.5"/><line x1="12.631578947368421" y1="396.4912280701754" x2="387.36842105263156" y2="396.4912280701754" stroke="#000000" stroke-width="1.8" opacity="0.95"/><line x1="12.631578947368421" y1="397.9912280701754" x2="387.36842105263156" y2="397.9912280701754" stroke="#30303e" stroke-width="0.7" opacity="0.5"/><line x1="12.631578947368421" y1="447.7192982456141" x2="387.36842105263156" y2="447.7192982456141" stroke="#000000" stroke-width="1.8" opacity="0.95"/><line x1="12.631578947368421" y1="449.2192982456141" x2="387.36842105263156" y2="449.2192982456141" stroke="#30303e" stroke-width="0.7" opacity="0.5"/><line x1="12.631578947368421" y1="498.9473684210526" x2="387.36842105263156" y2="498.9473684210526" stroke="#000000" stroke-width="1.8" opacity="0.95"/><line x1="12.631578947368421" y1="500.4473684210526" x2="387.36842105263156" y2="500.4473684210526" stroke="#30303e" stroke-width="0.7" opacity="0.5"/><line x1="12.631578947368421" y1="550.1754385964912" x2="387.36842105263156" y2="550.1754385964912" stroke="#000000" stroke-width="1.8" opacity="0.95"/><line x1="12.631578947368421" y1="551.6754385964912" x2="387.36842105263156" y2="551.6754385964912" stroke="#30303e" stroke-width="0.7" opacity="0.5"/><line x1="12.631578947368421" y1="601.4035087719298" x2="387.36842105263156" y2="601.4035087719298" stroke="#000000" stroke-width="1.8" opacity="0.95"/><line x1="12.631578947368421" y1="602.9035087719298" x2="387.36842105263156" y2="602.9035087719298" stroke="#30303e" stroke-width="0.7" opacity="0.5"/><line x1="12.631578947368421" y1="652.6315789473684" x2="387.36842105263156" y2="652.6315789473684" stroke="#000000" stroke-width="1.8" opacity="0.95"/><line x1="12.631578947368421" y1="654.1315789473684" x2="387.36842105263156" y2="654.1315789473684" stroke="#30303e" stroke-width="0.7" opacity="0.5"/><line x1="12.631578947368421" y1="703.859649122807" x2="387.36842105263156" y2="703.859649122807" stroke="#000000" stroke-width="1.8" opacity="0.95"/><line x1="12.631578947368421" y1="705.359649122807" x2="387.36842105263156" y2="705.359649122807" stroke="#30303e" stroke-width="0.7" opacity="0.5"/><line x1="12.631578947368421" y1="755.0877192982456" x2="387.36842105263156" y2="755.0877192982456" stroke="#000000" stroke-width="1.8" opacity="0.95"/><line x1="12.631578947368421" y1="756.5877192982456" x2="387.36842105263156" y2="756.5877192982456" stroke="#30303e" stroke-width="0.7" opacity="0.5"/><line x1="12.631578947368421" y1="806.3157894736842" x2="387.36842105263156" y2="806.3157894736842" stroke="#000000" stroke-width="1.8" opacity="0.95"/><line x1="12.631578947368421" y1="807.8157894736842" x2="387.36842105263156" y2="807.8157894736842" stroke="#30303e" stroke-width="0.7" opacity="0.5"/><line x1="12.631578947368421" y1="857.5438596491227" x2="387.36842105263156" y2="857.5438596491227" stroke="#000000" stroke-width="1.8" opacity="0.95"/><line x1="12.631578947368421" y1="859.0438596491227" x2="387.36842105263156" y2="859.0438596491227" stroke="#30303e" stroke-width="0.7" opacity="0.5"/><line x1="12.631578947368421" y1="908.7719298245614" x2="387.36842105263156" y2="908.7719298245614" stroke="#000000" stroke-width="1.8" opacity="0.95"/><line x1="12.631578947368421" y1="910.2719298245614" x2="387.36842105263156" y2="910.2719298245614" stroke="#30303e" stroke-width="0.7" opacity="0.5"/><rect x="35.78947368421053" y="379.07368421052627" width="29.473684210526315" height="117.89473684210526" fill="#1a1a1a"/><rect x="35.78947368421053" y="379.07368421052627" width="29.473684210526315" height="117.89473684210526" fill="none" stroke="#444444" stroke-width="0.5"/><rect x="0" y="0" width="400" height="968.4210526315788" fill="none" stroke="#000000" stroke-width="1.5"/></svg>